<?xml version="1.0" encoding="UTF-8" standalone="no"?>
<!DOCTYPE svg PUBLIC "-//W3C//DTD SVG 1.1//EN"
 "http://www.w3.org/Graphics/SVG/1.1/DTD/svg11.dtd">
<!-- Generated by graphviz version 2.40.1 (20161225.0304)
 -->
<!-- Title: G Pages: 1 -->
<svg width="430pt" height="288pt"
 viewBox="0.00 0.00 430.27 288.00" xmlns="http://www.w3.org/2000/svg" xmlns:xlink="http://www.w3.org/1999/xlink">
<g id="graph0" class="graph" transform="scale(.4337 .4337) rotate(0) translate(4 660)">
<title>G</title>
<polygon fill="#ffffff" stroke="transparent" points="-4,4 -4,-660 988,-660 988,4 -4,4"/>
<g id="clust1" class="cluster">
<title>cluster_0</title>
<polygon fill="#000000" fill-opacity="0.058824" stroke="#000000" stroke-opacity="0.058824" points="26.5946,-8 26.5946,-612 957.4054,-612 957.4054,-8 26.5946,-8"/>
<text text-anchor="middle" x="492" y="-596.8" font-family="Times,serif" font-size="14.00" fill="#000000">UCE</text>
</g>
<g id="clust2" class="cluster">
<title>cluster_1</title>
<polygon fill="#000000" fill-opacity="0.058824" stroke="#000000" stroke-opacity="0.058824" points="123,-163 123,-310 841.0541,-310 841.0541,-163 123,-163"/>
<text text-anchor="middle" x="482.027" y="-294.8" font-family="Times,serif" font-size="14.00" fill="#000000">Code</text>
</g>
<g id="clust3" class="cluster">
<title>cluster_2</title>
<polygon fill="#000000" fill-opacity="0.058824" stroke="#000000" stroke-opacity="0.058824" points="485.3514,-80 485.3514,-155 890.9189,-155 890.9189,-80 485.3514,-80"/>
<text text-anchor="middle" x="688.1351" y="-139.8" font-family="Times,serif" font-size="14.00" fill="#000000">Static</text>
</g>
<g id="clust4" class="cluster">
<title>cluster_3</title>
<polygon fill="#000000" fill-opacity="0.058824" stroke="#000000" stroke-opacity="0.058824" points="531.8919,-318 531.8919,-537 930.8108,-537 930.8108,-318 531.8919,-318"/>
<text text-anchor="middle" x="731.3514" y="-521.8" font-family="Times,serif" font-size="14.00" fill="#000000">UI</text>
</g>
<!-- u10 -->
<g id="node1" class="node">
<title>u10</title>
<ellipse fill="#bbffbb" stroke="#000000" stroke-width="0" cx="468.2703" cy="-638" rx="29.795" ry="18"/>
<text text-anchor="middle" x="468.2703" y="-634.3" font-family="Times,serif" font-size="14.00" fill="#000000">Main</text>
</g>
<!-- u0 -->
<g id="node2" class="node">
<title>u0</title>
<ellipse fill="#bbffbb" stroke="#000000" stroke-width="2" cx="468.2703" cy="-563" rx="28.6953" ry="18"/>
<text text-anchor="middle" x="468.2703" y="-559.3" font-family="Times,serif" font-size="14.00" fill="#000000">UCE</text>
</g>
<!-- u10&#45;&gt;u0 -->
<g id="edge12" class="edge">
<title>u10&#45;&gt;u0</title>
<path fill="none" stroke="#000000" d="M468.2703,-619.8446C468.2703,-611.3401 468.2703,-601.0076 468.2703,-591.4964"/>
<polygon fill="#000000" stroke="#000000" points="471.7704,-591.2481 468.2703,-581.2482 464.7704,-591.2482 471.7704,-591.2481"/>
</g>
<!-- u6 -->
<g id="node4" class="node">
<title>u6</title>
<ellipse fill="#ffffbb" stroke="#000000" stroke-width="0" cx="279.2703" cy="-488" rx="67.6881" ry="18"/>
<text text-anchor="middle" x="279.2703" y="-484.3" font-family="Times,serif" font-size="14.00" fill="#000000">DeclarationJson</text>
</g>
<!-- u0&#45;&gt;u6 -->
<g id="edge1" class="edge">
<title>u0&#45;&gt;u6</title>
<path fill="none" stroke="#000000" d="M443.9487,-553.3486C414.4791,-541.6543 364.1497,-521.6823 326.868,-506.888"/>
<polygon fill="#000000" stroke="#000000" points="327.796,-503.4908 317.2101,-503.0555 325.214,-509.9972 327.796,-503.4908"/>
</g>
<!-- u7 -->
<g id="node9" class="node">
<title>u7</title>
<ellipse fill="#ffffbb" stroke="#000000" stroke-width="2" cx="661.2703" cy="-488" rx="27" ry="18"/>
<text text-anchor="middle" x="661.2703" y="-484.3" font-family="Times,serif" font-size="14.00" fill="#000000">UI</text>
</g>
<!-- u0&#45;&gt;u7 -->
<g id="edge2" class="edge">
<title>u0&#45;&gt;u7</title>
<path fill="none" stroke="#000000" d="M496.9673,-561.2174C537.4721,-558.233 608.8675,-551.112 630.2703,-537 638.5404,-531.5471 645.0331,-523.0459 649.8928,-514.6458"/>
<polygon fill="#000000" stroke="#000000" points="653.026,-516.2067 654.5321,-505.7195 646.8148,-512.9786 653.026,-516.2067"/>
</g>
<!-- u3 -->
<g id="node3" class="node">
<title>u3</title>
<ellipse fill="#ffffbb" stroke="#000000" stroke-width="0" cx="508.2703" cy="-34" rx="37.8943" ry="18"/>
<text text-anchor="middle" x="508.2703" y="-30.3" font-family="Times,serif" font-size="14.00" fill="#000000">Prelude</text>
</g>
<!-- u1 -->
<g id="node5" class="node">
<title>u1</title>
<ellipse fill="#ffffbb" stroke="#000000" stroke-width="2" cx="538.2703" cy="-261" rx="29.4969" ry="18"/>
<text text-anchor="middle" x="538.2703" y="-257.3" font-family="Times,serif" font-size="14.00" fill="#000000">Code</text>
</g>
<!-- u6&#45;&gt;u1 -->
<g id="edge8" class="edge">
<title>u6&#45;&gt;u1</title>
<path fill="none" stroke="#000000" d="M299.1635,-470.5646C345.9377,-429.5694 462.7871,-327.1571 513.8002,-282.4467"/>
<polygon fill="#000000" stroke="#000000" points="516.1879,-285.0081 521.4014,-275.7847 511.5741,-279.7438 516.1879,-285.0081"/>
</g>
<!-- u2 -->
<g id="node6" class="node">
<title>u2</title>
<ellipse fill="#bbbbff" stroke="#000000" stroke-width="0" cx="359.2703" cy="-189" rx="63.0888" ry="18"/>
<text text-anchor="middle" x="359.2703" y="-185.3" font-family="Times,serif" font-size="14.00" fill="#000000">LoadCodebase</text>
</g>
<!-- u1&#45;&gt;u2 -->
<g id="edge3" class="edge">
<title>u1&#45;&gt;u2</title>
<path fill="none" stroke="#000000" d="M513.7564,-251.1397C485.9248,-239.9448 439.9027,-221.4331 405.3145,-207.5206"/>
<polygon fill="#000000" stroke="#000000" points="406.4704,-204.213 395.8867,-203.7284 403.8581,-210.7074 406.4704,-204.213"/>
</g>
<!-- u4 -->
<g id="node7" class="node">
<title>u4</title>
<ellipse fill="#bbbbff" stroke="#000000" stroke-width="0" cx="721.2703" cy="-189" rx="27.8951" ry="18"/>
<text text-anchor="middle" x="721.2703" y="-185.3" font-family="Times,serif" font-size="14.00" fill="#000000">Print</text>
</g>
<!-- u1&#45;&gt;u4 -->
<g id="edge4" class="edge">
<title>u1&#45;&gt;u4</title>
<path fill="none" stroke="#000000" d="M562.9505,-251.2898C595.1433,-238.6237 651.6004,-216.4111 687.6743,-202.2181"/>
<polygon fill="#000000" stroke="#000000" points="689.2471,-205.3605 697.2713,-198.4422 686.6842,-198.8465 689.2471,-205.3605"/>
</g>
<!-- u2&#45;&gt;u3 -->
<g id="edge5" class="edge">
<title>u2&#45;&gt;u3</title>
<path fill="none" stroke="#000000" d="M376.0728,-171.5208C402.7344,-143.7856 454.7983,-89.6252 485.0226,-58.1838"/>
<polygon fill="#000000" stroke="#000000" points="487.8005,-60.3445 492.2075,-50.7096 482.754,-55.4933 487.8005,-60.3445"/>
</g>
<!-- u5 -->
<g id="node8" class="node">
<title>u5</title>
<ellipse fill="#ffbbbb" stroke="#000000" stroke-width="0" cx="688.2703" cy="-106" rx="52.7911" ry="18"/>
<text text-anchor="middle" x="688.2703" y="-102.3" font-family="Times,serif" font-size="14.00" fill="#000000">DisplayDoc</text>
</g>
<!-- u4&#45;&gt;u5 -->
<g id="edge6" class="edge">
<title>u4&#45;&gt;u5</title>
<path fill="none" stroke="#000000" d="M714.2718,-171.3978C709.8828,-160.3587 704.133,-145.8973 699.1567,-133.3811"/>
<polygon fill="#000000" stroke="#000000" points="702.3194,-131.8623 695.3724,-123.8629 695.8147,-134.4485 702.3194,-131.8623"/>
</g>
<!-- u5&#45;&gt;u3 -->
<g id="edge7" class="edge">
<title>u5&#45;&gt;u3</title>
<path fill="none" stroke="#000000" d="M657.0839,-91.2983C648.7488,-87.5 639.7105,-83.4982 631.2703,-80 603.8741,-68.6452 572.5623,-56.9531 548.3873,-48.1981"/>
<polygon fill="#000000" stroke="#000000" points="549.4247,-44.8517 538.8303,-44.7552 547.0522,-51.4374 549.4247,-44.8517"/>
</g>
<!-- u9 -->
<g id="node11" class="node">
<title>u9</title>
<ellipse fill="#bbffff" stroke="#000000" stroke-width="0" cx="701.2703" cy="-416" rx="34.394" ry="18"/>
<text text-anchor="middle" x="701.2703" y="-412.3" font-family="Times,serif" font-size="14.00" fill="#000000">Search</text>
</g>
<!-- u7&#45;&gt;u9 -->
<g id="edge9" class="edge">
<title>u7&#45;&gt;u9</title>
<path fill="none" stroke="#000000" d="M670.7497,-470.937C675.5117,-462.3654 681.3862,-451.7914 686.7055,-442.2165"/>
<polygon fill="#000000" stroke="#000000" points="689.7841,-443.882 691.581,-433.4407 683.665,-440.4825 689.7841,-443.882"/>
</g>
<!-- u8 -->
<g id="node10" class="node">
<title>u8</title>
<ellipse fill="#bbffff" stroke="#000000" stroke-width="0" cx="731.2703" cy="-344" rx="51.9908" ry="18"/>
<text text-anchor="middle" x="731.2703" y="-340.3" font-family="Times,serif" font-size="14.00" fill="#000000">Declaration</text>
</g>
<!-- u8&#45;&gt;u1 -->
<g id="edge10" class="edge">
<title>u8&#45;&gt;u1</title>
<path fill="none" stroke="#000000" d="M700.5626,-329.4713C692.3742,-325.6717 683.5119,-321.6259 675.2703,-318 640.4667,-302.6879 600.2547,-286.0847 572.4399,-274.7691"/>
<polygon fill="#000000" stroke="#000000" points="573.7299,-271.5155 563.1477,-270.998 571.0975,-278.0017 573.7299,-271.5155"/>
</g>
<!-- u9&#45;&gt;u8 -->
<g id="edge11" class="edge">
<title>u9&#45;&gt;u8</title>
<path fill="none" stroke="#000000" d="M708.686,-398.2022C712.0755,-390.0675 716.1661,-380.2501 719.9294,-371.2181"/>
<polygon fill="#000000" stroke="#000000" points="723.2204,-372.4195 723.8359,-361.8425 716.7589,-369.7271 723.2204,-372.4195"/>
</g>
</g>
</svg>
