<?xml version="1.0" encoding="UTF-8" standalone="no"?>
<!DOCTYPE svg PUBLIC "-//W3C//DTD SVG 1.1//EN"
 "http://www.w3.org/Graphics/SVG/1.1/DTD/svg11.dtd">
<!-- Generated by graphviz version 2.40.1 (20161225.0304)
 -->
<!-- Title: G Pages: 1 -->
<svg width="430pt" height="288pt"
 viewBox="0.00 0.00 430.24 288.00" xmlns="http://www.w3.org/2000/svg" xmlns:xlink="http://www.w3.org/1999/xlink">
<g id="graph0" class="graph" transform="scale(.441 .441) rotate(0) translate(4 649)">
<title>G</title>
<polygon fill="#ffffff" stroke="transparent" points="-4,4 -4,-649 971.5,-649 971.5,4 -4,4"/>
<g id="clust1" class="cluster">
<title>cluster_0</title>
<polygon fill="#000000" fill-opacity="0.058824" stroke="#000000" stroke-opacity="0.058824" points="26.1486,-8 26.1486,-601 941.3514,-601 941.3514,-8 26.1486,-8"/>
<text text-anchor="middle" x="483.75" y="-585.8" font-family="Times,serif" font-size="14.00" fill="#000000">UCE</text>
</g>
<g id="clust2" class="cluster">
<title>cluster_1</title>
<polygon fill="#000000" fill-opacity="0.058824" stroke="#000000" stroke-opacity="0.058824" points="163.4291,-80 163.4291,-299 869.4426,-299 869.4426,-80 163.4291,-80"/>
<text text-anchor="middle" x="516.4358" y="-283.8" font-family="Times,serif" font-size="14.00" fill="#000000">Code</text>
</g>
<g id="clust3" class="cluster">
<title>cluster_2</title>
<polygon fill="#000000" fill-opacity="0.058824" stroke="#000000" stroke-opacity="0.058824" points="522.973,-307 522.973,-526 915.2027,-526 915.2027,-307 522.973,-307"/>
<text text-anchor="middle" x="719.0878" y="-510.8" font-family="Times,serif" font-size="14.00" fill="#000000">UI</text>
</g>
<!-- u10 -->
<g id="node1" class="node">
<title>u10</title>
<ellipse fill="#bbffbb" stroke="#000000" stroke-width="0" cx="460.8176" cy="-627" rx="29.795" ry="18"/>
<text text-anchor="middle" x="460.8176" y="-623.3" font-family="Times,serif" font-size="14.00" fill="#000000">Main</text>
</g>
<!-- u0 -->
<g id="node2" class="node">
<title>u0</title>
<ellipse fill="#bbffbb" stroke="#000000" stroke-width="2" cx="460.8176" cy="-552" rx="28.6953" ry="18"/>
<text text-anchor="middle" x="460.8176" y="-548.3" font-family="Times,serif" font-size="14.00" fill="#000000">UCE</text>
</g>
<!-- u10&#45;&gt;u0 -->
<g id="edge12" class="edge">
<title>u10&#45;&gt;u0</title>
<path fill="none" stroke="#000000" d="M460.8176,-608.8446C460.8176,-600.3401 460.8176,-590.0076 460.8176,-580.4964"/>
<polygon fill="#000000" stroke="#000000" points="464.3177,-580.2481 460.8176,-570.2482 457.3177,-580.2482 464.3177,-580.2481"/>
</g>
<!-- u6 -->
<g id="node4" class="node">
<title>u6</title>
<ellipse fill="#ffffbb" stroke="#000000" stroke-width="0" cx="274.8176" cy="-477" rx="67.6881" ry="18"/>
<text text-anchor="middle" x="274.8176" y="-473.3" font-family="Times,serif" font-size="14.00" fill="#000000">DeclarationJson</text>
</g>
<!-- u0&#45;&gt;u6 -->
<g id="edge1" class="edge">
<title>u0&#45;&gt;u6</title>
<path fill="none" stroke="#000000" d="M436.5013,-542.1951C407.4849,-530.4949 358.3137,-510.6678 321.7978,-495.9436"/>
<polygon fill="#000000" stroke="#000000" points="322.9184,-492.6217 312.335,-492.128 320.3005,-499.1138 322.9184,-492.6217"/>
</g>
<!-- u7 -->
<g id="node9" class="node">
<title>u7</title>
<ellipse fill="#ffffbb" stroke="#000000" stroke-width="2" cx="650.8176" cy="-477" rx="27" ry="18"/>
<text text-anchor="middle" x="650.8176" y="-473.3" font-family="Times,serif" font-size="14.00" fill="#000000">UI</text>
</g>
<!-- u0&#45;&gt;u7 -->
<g id="edge2" class="edge">
<title>u0&#45;&gt;u7</title>
<path fill="none" stroke="#000000" d="M489.318,-550.1326C529.133,-547.0601 598.8799,-539.8497 619.8176,-526 628.0796,-520.5349 634.5705,-512.0309 639.431,-503.632"/>
<polygon fill="#000000" stroke="#000000" points="642.5631,-505.195 644.0719,-494.7082 636.3527,-501.9652 642.5631,-505.195"/>
</g>
<!-- u3 -->
<g id="node3" class="node">
<title>u3</title>
<ellipse fill="#ffffbb" stroke="#000000" stroke-width="0" cx="503.8176" cy="-34" rx="37.8943" ry="18"/>
<text text-anchor="middle" x="503.8176" y="-30.3" font-family="Times,serif" font-size="14.00" fill="#000000">Prelude</text>
</g>
<!-- u1 -->
<g id="node5" class="node">
<title>u1</title>
<ellipse fill="#ffffbb" stroke="#000000" stroke-width="2" cx="346.8176" cy="-250" rx="29.4969" ry="18"/>
<text text-anchor="middle" x="346.8176" y="-246.3" font-family="Times,serif" font-size="14.00" fill="#000000">Code</text>
</g>
<!-- u6&#45;&gt;u1 -->
<g id="edge8" class="edge">
<title>u6&#45;&gt;u1</title>
<path fill="none" stroke="#000000" d="M280.5879,-458.8074C293.1788,-419.111 323.1804,-324.5226 338.0935,-277.5051"/>
<polygon fill="#000000" stroke="#000000" points="341.4324,-278.5544 341.1197,-267.9642 334.76,-276.438 341.4324,-278.5544"/>
</g>
<!-- u4 -->
<g id="node7" class="node">
<title>u4</title>
<ellipse fill="#bbbbff" stroke="#000000" stroke-width="0" cx="637.8176" cy="-178" rx="63.0888" ry="18"/>
<text text-anchor="middle" x="637.8176" y="-174.3" font-family="Times,serif" font-size="14.00" fill="#000000">LoadCodebase</text>
</g>
<!-- u1&#45;&gt;u4 -->
<g id="edge3" class="edge">
<title>u1&#45;&gt;u4</title>
<path fill="none" stroke="#000000" d="M374.1941,-243.2264C421.0356,-231.6368 517.5253,-207.763 579.871,-192.3373"/>
<polygon fill="#000000" stroke="#000000" points="581.0848,-195.6426 589.9514,-189.8432 579.4035,-188.8475 581.0848,-195.6426"/>
</g>
<!-- u5 -->
<g id="node8" class="node">
<title>u5</title>
<ellipse fill="#bbbbff" stroke="#000000" stroke-width="0" cx="280.8176" cy="-178" rx="27.8951" ry="18"/>
<text text-anchor="middle" x="280.8176" y="-174.3" font-family="Times,serif" font-size="14.00" fill="#000000">Print</text>
</g>
<!-- u1&#45;&gt;u5 -->
<g id="edge4" class="edge">
<title>u1&#45;&gt;u5</title>
<path fill="none" stroke="#000000" d="M332.17,-234.0209C323.3689,-224.4196 312.0141,-212.0326 302.2206,-201.3488"/>
<polygon fill="#000000" stroke="#000000" points="304.7615,-198.941 295.4242,-193.9345 299.6014,-203.6711 304.7615,-198.941"/>
</g>
<!-- u2 -->
<g id="node6" class="node">
<title>u2</title>
<ellipse fill="#bbbbff" stroke="#000000" stroke-width="0" cx="382.8176" cy="-106" rx="52.7911" ry="18"/>
<text text-anchor="middle" x="382.8176" y="-102.3" font-family="Times,serif" font-size="14.00" fill="#000000">DisplayDoc</text>
</g>
<!-- u2&#45;&gt;u3 -->
<g id="edge5" class="edge">
<title>u2&#45;&gt;u3</title>
<path fill="none" stroke="#000000" d="M409.0728,-90.3771C427.3137,-79.5229 451.7475,-64.9839 471.233,-53.3892"/>
<polygon fill="#000000" stroke="#000000" points="473.2703,-56.2497 480.0743,-48.1282 469.6908,-50.2341 473.2703,-56.2497"/>
</g>
<!-- u4&#45;&gt;u3 -->
<g id="edge6" class="edge">
<title>u4&#45;&gt;u3</title>
<path fill="none" stroke="#000000" d="M621.3865,-160.3428C597.4952,-134.6685 553.094,-86.9538 526.2227,-58.0772"/>
<polygon fill="#000000" stroke="#000000" points="528.5147,-55.4024 519.1401,-50.466 523.3902,-60.171 528.5147,-55.4024"/>
</g>
<!-- u5&#45;&gt;u2 -->
<g id="edge7" class="edge">
<title>u5&#45;&gt;u2</title>
<path fill="none" stroke="#000000" d="M300.003,-164.4574C314.4509,-154.2588 334.5706,-140.0567 351.3607,-128.2049"/>
<polygon fill="#000000" stroke="#000000" points="353.6384,-130.8813 359.7896,-122.255 349.6015,-125.1625 353.6384,-130.8813"/>
</g>
<!-- u9 -->
<g id="node11" class="node">
<title>u9</title>
<ellipse fill="#ffbbbb" stroke="#000000" stroke-width="0" cx="689.8176" cy="-405" rx="34.394" ry="18"/>
<text text-anchor="middle" x="689.8176" y="-401.3" font-family="Times,serif" font-size="14.00" fill="#000000">Search</text>
</g>
<!-- u7&#45;&gt;u9 -->
<g id="edge9" class="edge">
<title>u7&#45;&gt;u9</title>
<path fill="none" stroke="#000000" d="M660.06,-459.937C664.6551,-451.4537 670.3126,-441.0092 675.4564,-431.513"/>
<polygon fill="#000000" stroke="#000000" points="678.6852,-432.9006 680.3705,-422.4407 672.5301,-429.5666 678.6852,-432.9006"/>
</g>
<!-- u8 -->
<g id="node10" class="node">
<title>u8</title>
<ellipse fill="#ffbbbb" stroke="#000000" stroke-width="0" cx="718.8176" cy="-333" rx="51.9908" ry="18"/>
<text text-anchor="middle" x="718.8176" y="-329.3" font-family="Times,serif" font-size="14.00" fill="#000000">Declaration</text>
</g>
<!-- u8&#45;&gt;u1 -->
<g id="edge10" class="edge">
<title>u8&#45;&gt;u1</title>
<path fill="none" stroke="#000000" d="M690.028,-317.918C681.4523,-313.8987 671.9127,-309.879 662.8176,-307 565.8024,-276.2904 446.4742,-260.3947 385.9794,-253.8008"/>
<polygon fill="#000000" stroke="#000000" points="386.0506,-250.2887 375.7367,-252.7125 385.3109,-257.2495 386.0506,-250.2887"/>
</g>
<!-- u9&#45;&gt;u8 -->
<g id="edge11" class="edge">
<title>u9&#45;&gt;u8</title>
<path fill="none" stroke="#000000" d="M696.9861,-387.2022C700.2626,-379.0675 704.2168,-369.2501 707.8547,-360.2181"/>
<polygon fill="#000000" stroke="#000000" points="711.1414,-361.4261 711.631,-350.8425 704.6483,-358.8107 711.1414,-361.4261"/>
</g>
</g>
</svg>
